<?xml version="1.0" encoding="utf-8"?>
<!-- Generator: Adobe Illustrator 26.0.2, SVG Export Plug-In . SVG Version: 6.00 Build 0)  -->
<svg version="1.1" id="Camada_1" xmlns:serif="http://www.serif.com/"
	 xmlns="http://www.w3.org/2000/svg" xmlns:xlink="http://www.w3.org/1999/xlink" x="0px" y="0px" viewBox="0 0 256 257.5"
	 style="enable-background:new 0 0 256 257.5;" xml:space="preserve">
<style type="text/css">
	.st0{fill-rule:evenodd;clip-rule:evenodd;fill:#BFBFBF;}
</style>
<path class="st0" d="M127.5,258l0.1,0L127.5,258C127.6,258,127.5,258,127.5,258z M128.4,258L128.4,258L128.4,258L128.4,258z
	 M127.1,258l0.1,0L127.1,258L127.1,258z M128.8,258L128.8,258L128.8,258L128.8,258z M126.7,258L126.7,258L126.7,258
	C126.8,258,126.7,258,126.7,258z M129.2,258L129.2,258L129.2,258L129.2,258L129.2,258z M129.7,258L129.7,258L129.7,258L129.7,258
	L129.7,258z M126.3,258l0.1,0L126.3,258L126.3,258L126.3,258z M130.1,258L130.1,258L130.1,258L130.1,258L130.1,258z M125.9,258
	l0.1,0L125.9,258L125.9,258L125.9,258z M130.5,258L130.5,258L130.5,258L130.5,258z M125.5,258l0.1,0L125.5,258
	C125.5,258,125.5,258,125.5,258z M125,258l0.1,0L125,258C125.1,258,125,258,125,258z M130.9,258L130.9,258L130.9,258L130.9,258z
	 M124.6,258l0.2,0L124.6,258L124.6,258z M131.3,258L131.3,258L131.3,258L131.3,258z M131.7,257.9l-0.1,0L131.7,257.9L131.7,257.9
	L131.7,257.9z M124.2,257.9l0.2,0L124.2,257.9C124.3,257.9,124.2,257.9,124.2,257.9z M123.9,257.9l0.1,0L123.9,257.9L123.9,257.9
	L123.9,257.9z M132.1,257.9l-0.1,0L132.1,257.9L132.1,257.9L132.1,257.9z M132.5,257.9L132.5,257.9l0.1,0L132.5,257.9z M123.3,257.9
	l0.2,0l-0.1,0L123.3,257.9z M123,257.9l0.2,0L123,257.9L123,257.9z M132.9,257.9l-0.1,0L132.9,257.9L132.9,257.9z M122.6,257.9
	l0.2,0L122.6,257.9L122.6,257.9L122.6,257.9z M133.4,257.9l-0.1,0L133.4,257.9L133.4,257.9L133.4,257.9z M122.1,257.9l0.2,0l0,0
	L122.1,257.9z M133.8,257.9L133.8,257.9l0.1,0L133.8,257.9L133.8,257.9z M121.7,257.8l0.2,0l-0.1,0L121.7,257.8z M134.2,257.9
	L134.2,257.9l0.1,0L134.2,257.9z M121.4,257.8l0.2,0L121.4,257.8L121.4,257.8z M134.6,257.8l-0.1,0L134.6,257.8L134.6,257.8z
	 M135,257.8l-0.2,0L135,257.8l0.2,0L135,257.8L135,257.8z M121,257.8l0.2,0L121,257.8l-0.2,0L121,257.8L121,257.8z M135.4,257.8
	L135.4,257.8l0.1,0L135.4,257.8z M120.5,257.8l0.2,0l-0.1,0L120.5,257.8z M120.1,257.8l0.2,0L120.1,257.8L120.1,257.8L120.1,257.8z
	 M135.8,257.8l-0.1,0L135.8,257.8L135.8,257.8L135.8,257.8z M119.8,257.7l0.2,0L119.8,257.7l-0.2,0
	C119.6,257.7,119.8,257.7,119.8,257.7z M136.2,257.7l-0.2,0L136.2,257.7l0.2,0L136.2,257.7L136.2,257.7z M136.6,257.7L136.6,257.7
	l0.1,0L136.6,257.7L136.6,257.7z M119.2,257.7l0.2,0l-0.1,0L119.2,257.7z M118.9,257.7l0.2,0L118.9,257.7
	C119,257.7,118.9,257.7,118.9,257.7z M137,257.7l-0.1,0L137,257.7L137,257.7z M118.5,257.7l0.2,0L118.5,257.7L118.5,257.7
	L118.5,257.7z M137.4,257.7l-0.1,0L137.4,257.7L137.4,257.7L137.4,257.7z M118,257.6l0.2,0l0,0L118,257.6z M137.8,257.6L137.8,257.6
	l0.1,0L137.8,257.6z M138.2,257.6L138.2,257.6L138.2,257.6L138.2,257.6z M117.7,257.6l0.2,0L117.7,257.6
	C117.8,257.6,117.7,257.6,117.7,257.6z M117.3,257.6l0.1,0L117.3,257.6L117.3,257.6z M138.7,257.6L138.7,257.6L138.7,257.6
	L138.7,257.6z M116.9,257.5L116.9,257.5L116.9,257.5L116.9,257.5L116.9,257.5z M139.1,257.5L139.1,257.5L139.1,257.5L139.1,257.5
	L139.1,257.5z M139.5,257.5L139.5,257.5L139.5,257.5L139.5,257.5L139.5,257.5z M116.5,257.5L116.5,257.5L116.5,257.5L116.5,257.5
	L116.5,257.5z M116.1,257.5L116.1,257.5L116.1,257.5L116.1,257.5z M139.9,257.5L139.9,257.5L139.9,257.5L139.9,257.5z M108,256.4
	C46.8,246.8,0,193.8,0,130C0,59.4,57.4,2,128,2s128,57.4,128,128c0,63.8-46.8,116.8-108,126.4V167h29.8l5.7-37H148v-24
	c0-10.1,5-20,20.9-20H185V54.5c0,0-14.6-2.5-28.7-2.5c-29.2,0-48.3,17.7-48.3,49.8V130H75.5v37H108V256.4z"/>
</svg>
