<?xml version="1.0" encoding="utf-8"?>
<!-- Generator: Adobe Illustrator 26.0.2, SVG Export Plug-In . SVG Version: 6.00 Build 0)  -->
<svg version="1.1" id="Camada_1" xmlns:serif="http://www.serif.com/"
	 xmlns="http://www.w3.org/2000/svg" xmlns:xlink="http://www.w3.org/1999/xlink" x="0px" y="0px" viewBox="0 0 256 256"
	 style="enable-background:new 0 0 256 256;" xml:space="preserve">
<style type="text/css">
	.st0{fill-rule:evenodd;clip-rule:evenodd;fill:#BFBFBF;}
</style>
<path class="st0" d="M128,0c70.6,0,128,57.4,128,128s-57.4,128-128,128S0,198.6,0,128S57.4,0,128,0z M128,48
	c-21.7,0-24.5,0.1-33,0.5c-8.5,0.4-14.3,1.7-19.4,3.7c-5.3,2-9.7,4.8-14.2,9.2s-7.2,8.9-9.2,14.2c-2,5.1-3.3,10.9-3.7,19.4
	c-0.4,8.5-0.5,11.3-0.5,33s0.1,24.5,0.5,33c0.4,8.5,1.7,14.3,3.7,19.4c2,5.3,4.8,9.7,9.2,14.2c4.4,4.4,8.9,7.2,14.2,9.2
	c5.1,2,10.9,3.3,19.4,3.7c8.5,0.4,11.3,0.5,33,0.5s24.5-0.1,33-0.5c8.5-0.4,14.3-1.7,19.4-3.7c5.3-2,9.7-4.8,14.2-9.2
	c4.4-4.4,7.2-8.9,9.2-14.2c2-5.1,3.3-10.9,3.7-19.4c0.4-8.5,0.5-11.3,0.5-33s-0.1-24.5-0.5-33c-0.4-8.5-1.7-14.3-3.7-19.4
	c-2-5.3-4.8-9.7-9.2-14.2c-4.4-4.4-8.9-7.2-14.2-9.2c-5.1-2-10.9-3.3-19.4-3.7C152.5,48.1,149.7,48,128,48z M128,62.4
	c21.4,0,23.9,0.1,32.3,0.5c7.8,0.4,12,1.7,14.9,2.8c3.7,1.5,6.4,3.2,9.2,6c2.8,2.8,4.5,5.5,6,9.2c1.1,2.8,2.4,7.1,2.8,14.9
	c0.4,8.4,0.5,11,0.5,32.3s-0.1,23.9-0.5,32.3c-0.4,7.8-1.7,12-2.8,14.9c-1.5,3.7-3.2,6.4-6,9.2c-2.8,2.8-5.5,4.5-9.2,6
	c-2.8,1.1-7.1,2.4-14.9,2.8c-8.4,0.4-11,0.5-32.3,0.5s-23.9-0.1-32.3-0.5c-7.8-0.4-12-1.7-14.9-2.8c-3.7-1.5-6.4-3.2-9.2-6
	c-2.8-2.8-4.5-5.5-6-9.2c-1.1-2.8-2.4-7.1-2.8-14.9c-0.4-8.4-0.5-11-0.5-32.3s0.1-23.9,0.5-32.3c0.4-7.8,1.7-12,2.8-14.9
	c1.5-3.7,3.2-6.4,6-9.2c2.8-2.8,5.5-4.5,9.2-6c2.8-1.1,7.1-2.4,14.9-2.8C104.1,62.5,106.6,62.4,128,62.4z M128,86.9
	c-22.7,0-41.1,18.4-41.1,41.1s18.4,41.1,41.1,41.1s41.1-18.4,41.1-41.1S150.7,86.9,128,86.9z M128,154.7
	c-14.7,0-26.7-11.9-26.7-26.7s11.9-26.7,26.7-26.7s26.7,11.9,26.7,26.7S142.7,154.7,128,154.7z M180.3,85.3c0,5.3-4.3,9.6-9.6,9.6
	c-5.3,0-9.6-4.3-9.6-9.6s4.3-9.6,9.6-9.6C176,75.7,180.3,80,180.3,85.3z"/>
</svg>
